<?xml version="1.0" standalone="no"?>
<!DOCTYPE svg PUBLIC "-//W3C//DTD SVG 20010904//EN"
 "http://www.w3.org/TR/2001/REC-SVG-20010904/DTD/svg10.dtd">
<svg version="1.0" xmlns="http://www.w3.org/2000/svg"
 width="782.000000pt" height="782.000000pt" viewBox="0 0 782.000000 782.000000"
 preserveAspectRatio="xMidYMid meet">
<metadata>
Created by potrace 1.11, written by Peter Selinger 2001-2013
</metadata>
<g transform="translate(0.000000,782.000000) scale(0.100000,-0.100000)"
fill="#000000" stroke="none">
<path d="M4127 7324 c-1 -1 -69 -5 -150 -8 -81 -4 -153 -9 -160 -11 -7 -2 -46
-6 -87 -10 -41 -3 -118 -13 -170 -21 -52 -9 -108 -18 -125 -20 -127 -21 -422
-103 -604 -169 -279 -101 -575 -267 -857 -481 -121 -92 -139 -106 -243 -198
-77 -68 -261 -256 -308 -313 -21 -26 -46 -55 -56 -65 -41 -43 -201 -266 -274
-385 -273 -439 -507 -1055 -579 -1523 -3 -19 -7 -42 -9 -50 -3 -8 -7 -42 -11
-74 -3 -33 -8 -69 -10 -80 -25 -130 -25 -671 0 -826 2 -14 7 -47 11 -75 73
-545 318 -1079 704 -1535 49 -58 285 -297 336 -340 272 -231 593 -421 900
-533 187 -69 447 -136 586 -153 30 -3 57 -8 60 -10 3 -2 34 -6 70 -9 35 -4 75
-9 89 -11 125 -21 576 -21 815 0 107 10 172 17 195 21 14 2 43 7 65 10 522 72
1043 270 1465 555 69 46 208 150 231 172 8 7 34 29 59 48 25 19 103 91 174
160 525 512 879 1127 1055 1835 25 103 56 249 66 320 36 236 39 260 52 455 13
211 7 610 -11 720 -3 14 -7 47 -11 74 -3 27 -8 52 -9 55 -2 3 -7 29 -10 56
-10 76 -61 277 -102 400 -74 223 -185 452 -314 646 -60 91 -102 151 -110 159
-3 3 -38 46 -79 95 -91 110 -287 306 -401 400 -106 88 -266 205 -280 205 -5 0
-10 5 -10 10 0 6 -4 10 -8 10 -5 0 -47 23 -93 51 -415 251 -967 408 -1525 435
-131 6 -324 11 -327 8z m-257 -373 c82 -12 100 -14 173 -26 320 -53 796 -238
1167 -452 573 -333 1038 -792 1370 -1357 189 -321 341 -754 390 -1111 6 -44
13 -91 15 -105 13 -91 19 -200 19 -370 1 -168 -3 -246 -19 -370 -7 -60 -29
-171 -47 -240 -10 -41 -20 -82 -23 -91 -7 -31 -76 -234 -89 -264 -8 -16 -31
-68 -51 -115 -42 -95 -144 -281 -208 -380 -340 -526 -828 -908 -1462 -1143
-118 -44 -340 -106 -435 -121 -19 -3 -46 -8 -60 -11 -101 -19 -244 -29 -420
-29 -150 -1 -344 9 -359 18 -3 2 -30 7 -59 10 -30 3 -75 11 -100 17 -26 6 -58
13 -72 15 -98 18 -311 88 -458 150 -497 211 -975 595 -1395 1119 -4 6 -26 35
-48 65 -22 30 -46 62 -52 70 -99 122 -313 502 -399 705 -63 151 -153 425 -174
535 -3 14 -9 42 -15 62 -5 20 -18 85 -29 145 -18 100 -22 130 -35 238 -27 233
-28 608 0 805 53 386 187 736 404 1055 30 44 58 82 61 85 3 3 13 15 21 27 101
147 450 474 649 608 25 16 47 33 50 36 9 10 223 134 305 176 257 131 599 228
885 249 47 4 86 7 87 9 9 7 344 -5 413 -14z"/>
<path d="M5596 6166 c5 -13 -24 -46 -114 -127 -22 -20 -50 -44 -63 -53 -13 -9
-20 -16 -15 -16 5 0 -4 -10 -20 -22 -29 -23 -65 -54 -135 -119 -39 -36 -39
-36 -19 -54 11 -10 20 -24 20 -31 0 -7 4 -14 8 -16 5 -1 44 -55 87 -118 43
-63 81 -117 85 -120 3 -3 23 -31 43 -62 21 -32 40 -58 43 -58 3 0 10 14 15 30
6 17 15 30 19 30 4 0 11 11 14 24 9 36 115 139 171 165 62 29 127 29 194 0 43
-18 125 -89 104 -89 -5 0 -1 -5 7 -10 8 -5 15 -13 16 -17 0 -4 6 -21 13 -38 7
-16 14 -56 16 -89 6 -155 -112 -280 -305 -322 -19 -4 -38 -9 -42 -10 -5 -1
-15 -2 -24 -3 -13 -1 -14 -4 -4 -16 7 -9 23 -13 39 -11 14 3 42 7 61 10 78 12
169 51 211 90 15 14 30 22 33 19 3 -4 6 0 6 8 0 8 9 20 20 27 11 7 20 17 20
23 0 6 9 24 21 40 40 57 58 193 36 278 -21 79 -100 181 -166 216 -106 55 -227
54 -329 -3 -57 -32 -141 -115 -172 -169 -24 -43 -40 -55 -40 -30 0 8 -9 22
-20 32 -11 10 -18 20 -16 23 3 2 -6 15 -20 29 -13 13 -24 28 -24 33 0 6 -8 18
-17 28 -10 10 -26 32 -35 49 l-17 30 77 72 c42 39 78 71 79 71 2 0 23 19 47
43 25 23 69 65 98 92 52 49 61 65 45 82 -5 4 -15 23 -22 41 -13 30 -40 48 -29
18z"/>
<path d="M4888 5523 c-10 -11 -14 -30 -12 -48 2 -16 6 -46 9 -65 3 -19 7 -65
10 -101 2 -36 7 -85 10 -109 3 -23 7 -70 10 -104 3 -33 7 -77 10 -96 9 -69 26
-262 28 -302 0 -16 3 -28 5 -28 6 0 58 44 147 126 44 40 102 93 130 118 l49
44 51 -56 c27 -30 68 -74 91 -98 82 -85 89 -111 47 -157 -16 -17 -21 -26 -13
-22 14 8 25 18 96 82 17 15 52 47 78 71 51 44 52 53 6 25 -28 -16 -30 -16 -64
7 -19 14 -32 28 -30 32 3 4 -2 8 -10 8 -9 0 -16 3 -16 8 0 7 -29 42 -107 126
l-46 50 71 65 c66 61 70 67 57 85 -8 11 -15 16 -15 12 0 -5 -9 2 -21 15 -17
20 -20 21 -15 5 5 -14 -9 -34 -53 -77 l-60 -58 -83 91 c-46 49 -96 105 -113
122 -16 18 -59 66 -95 106 -67 76 -128 140 -134 140 -1 0 -10 -8 -18 -17z m86
-221 c-1 -1 17 -22 40 -46 23 -24 68 -73 101 -110 33 -37 74 -83 92 -102 28
-30 36 -64 14 -64 -3 0 -19 -13 -36 -28 -95 -89 -200 -182 -206 -182 -3 0 -6
6 -6 13 0 14 -13 158 -18 197 -2 14 -6 57 -10 95 -3 39 -8 84 -10 101 -2 17
-7 65 -10 108 l-7 77 29 -28 c16 -15 28 -29 27 -31z"/>
<path d="M4323 4956 c-90 -22 -184 -99 -228 -187 -29 -56 -38 -96 -38 -164 1
-110 2 -117 21 -113 9 2 15 11 13 19 -13 53 2 208 23 221 6 4 7 8 3 8 -18 0
44 73 88 102 93 61 209 37 299 -63 41 -45 114 -169 100 -169 -3 0 -2 -6 4 -13
12 -14 38 -120 47 -192 14 -117 -1 -356 -30 -491 -10 -44 23 -31 101 39 43 39
90 80 102 92 13 11 38 34 56 50 103 97 240 220 247 223 12 5 12 39 0 46 -5 3
-12 18 -16 33 -3 15 -10 30 -14 33 -5 3 -16 19 -25 35 l-17 30 4 -41 c6 -49
-10 -77 -76 -138 -45 -42 -222 -204 -265 -243 -30 -27 -45 -29 -38 -5 7 21 19
247 19 352 0 103 -11 233 -23 264 -5 14 -7 26 -4 26 4 0 0 7 -7 17 -8 9 -12
18 -11 20 2 2 -8 29 -23 59 -19 39 -44 69 -83 99 -30 24 -58 43 -61 43 -5 -1
-57 8 -101 17 -8 2 -39 -3 -67 -9z"/>
<path d="M3720 4415 c-30 -7 -56 -18 -58 -24 -2 -6 -7 -9 -11 -6 -11 6 -121
-94 -121 -110 0 -7 -7 -18 -15 -25 -8 -7 -15 -21 -15 -31 0 -11 -4 -19 -8 -19
-10 0 -15 -31 -15 -110 0 -72 5 -100 25 -145 46 -105 143 -184 249 -203 140
-26 262 30 334 153 36 61 40 82 44 220 1 14 6 10 19 -15 10 -19 28 -52 40 -72
21 -37 55 -138 46 -138 -3 0 0 -9 5 -19 13 -24 14 -216 1 -216 -1 0 -4 -11 -6
-24 -6 -31 -49 -123 -82 -174 -27 -41 -23 -63 6 -31 29 34 62 83 62 94 0 5 5
10 12 10 6 0 8 3 5 6 -4 4 2 19 13 33 10 15 22 40 26 57 4 16 11 35 17 42 5 6
6 12 3 12 -4 0 -2 8 3 18 10 19 22 98 22 147 0 119 -35 247 -91 333 -38 59
-115 153 -125 152 -3 0 -22 12 -42 27 -80 62 -228 87 -343 58z m100 -92 c14
-3 32 -7 40 -9 67 -13 178 -89 214 -145 31 -50 35 -126 10 -194 -10 -27 -85
-105 -96 -99 -4 3 -8 1 -8 -4 0 -10 1 -9 -87 -18 -53 -5 -75 -2 -143 22 -44
15 -80 31 -80 36 0 4 -6 8 -13 8 -18 0 -107 79 -107 95 0 7 -5 15 -11 17 -5 2
-11 10 -12 18 -2 8 -5 20 -8 25 -12 22 -9 95 5 129 21 51 81 104 134 119 44
13 111 13 162 0z"/>
<path d="M3273 4032 c-7 -5 -48 -40 -91 -79 -117 -108 -146 -133 -154 -133 -5
0 -8 -7 -8 -15 0 -8 -4 -15 -9 -15 -8 0 -98 -79 -188 -166 -18 -18 -33 -29
-33 -26 0 4 -7 -4 -16 -16 -14 -21 -13 -26 30 -92 25 -38 48 -70 51 -70 3 0 3
16 1 35 -7 56 50 124 250 300 32 28 78 69 103 92 48 43 56 42 65 -8 3 -13 5
-25 7 -26 1 -2 2 -6 3 -10 2 -5 11 -35 21 -68 10 -33 20 -64 21 -70 1 -5 12
-41 25 -80 13 -38 24 -72 24 -75 8 -30 21 -78 40 -140 51 -166 73 -238 95
-310 12 -41 24 -82 28 -90 3 -8 6 -20 7 -26 7 -30 17 -54 23 -54 4 1 18 10 31
20 18 16 22 26 16 47 -4 16 -6 29 -6 30 0 2 -6 18 -15 38 -8 19 -14 37 -14 40
-1 7 -3 16 -40 135 -18 58 -39 125 -46 150 -7 25 -21 74 -32 110 -11 36 -43
139 -70 230 -50 163 -56 183 -68 218 -4 9 -8 26 -10 37 -7 48 -29 94 -41 87z"/>
<path d="M2569 3337 c-61 -11 -61 -11 -86 -25 -13 -7 -23 -10 -23 -7 0 6 -31
-19 -84 -69 -22 -21 -40 -42 -39 -47 2 -5 -2 -9 -7 -9 -5 0 -10 -7 -10 -15 0
-8 -4 -15 -9 -15 -5 0 -15 -26 -23 -59 -18 -70 -16 -136 6 -216 7 -25 30 -65
38 -65 4 0 8 -6 8 -14 0 -12 36 -48 97 -97 19 -15 75 -38 113 -46 35 -8 122
-8 127 0 2 4 10 6 16 5 17 -4 97 37 128 64 45 41 88 115 103 177 8 34 15 62
16 64 1 1 -3 14 -9 28 -13 36 -3 44 21 14 20 -26 68 -125 73 -153 2 -9 4 -17
5 -17 2 0 6 -17 15 -65 7 -35 8 -161 2 -190 -1 -8 -6 -21 -10 -27 -5 -7 -5
-17 -2 -23 3 -5 2 -10 -3 -10 -5 0 -12 -13 -15 -28 -3 -15 -24 -58 -46 -95
-44 -71 -46 -77 -31 -77 5 0 24 21 41 48 18 26 35 49 38 52 7 6 58 111 60 123
0 4 7 22 14 40 59 141 29 370 -68 517 -44 66 -125 159 -125 143 0 -4 -4 -3 -8
3 -11 18 -89 63 -96 57 -3 -4 -6 -2 -6 4 0 5 -6 10 -12 11 -7 1 -33 6 -58 12
-64 15 -100 16 -151 7z m84 -110 c26 -8 47 -12 47 -9 0 4 4 3 8 -3 4 -5 25
-19 47 -30 87 -43 147 -121 149 -195 2 -43 -21 -130 -34 -130 -6 0 -10 -6 -10
-12 0 -14 -75 -71 -100 -75 -101 -20 -170 -10 -265 37 -73 36 -146 106 -167
158 -8 21 -13 59 -11 87 5 71 5 75 15 75 4 0 8 6 8 13 0 7 9 19 19 27 11 7 17
18 14 23 -3 6 -1 7 5 3 6 -3 14 -1 17 5 27 42 162 56 258 26z"/>
<path d="M1914 2768 c-3 -5 -12 -7 -19 -4 -8 3 -15 2 -17 -2 -2 -4 -20 -16
-41 -27 -72 -36 -158 -139 -173 -207 -19 -84 -5 -206 28 -245 6 -7 7 -13 4
-13 -8 0 40 -64 72 -97 13 -13 27 -23 32 -23 6 0 10 -3 10 -7 0 -9 48 -33 66
-33 7 0 14 -5 16 -11 4 -12 156 -21 173 -11 6 4 15 7 20 8 65 10 159 95 199
177 18 39 24 68 24 120 0 71 7 93 19 61 3 -10 9 -21 13 -24 21 -16 79 -169 87
-230 7 -61 4 -180 -7 -199 -6 -12 -9 -21 -6 -21 5 0 -7 -31 -37 -102 -7 -16
-15 -28 -19 -28 -5 0 -8 -6 -8 -12 0 -7 -9 -24 -20 -38 -23 -29 -25 -40 -7
-40 6 0 26 22 43 48 34 51 104 177 104 190 0 4 5 23 10 42 34 127 29 248 -16
382 -8 26 -20 50 -25 53 -5 4 -9 15 -9 26 0 10 -4 19 -8 19 -4 0 -15 13 -25
29 -27 46 -93 116 -139 147 -24 16 -44 32 -46 37 -2 4 -10 7 -17 7 -8 0 -26 5
-42 12 -45 18 -53 19 -146 22 -48 2 -90 -1 -93 -6z m144 -113 c44 -15 90 -36
101 -46 12 -11 21 -17 21 -14 0 4 20 -15 45 -40 25 -26 43 -51 40 -55 -3 -5
-1 -11 4 -15 5 -3 10 -13 10 -23 1 -9 1 -24 2 -32 3 -35 -6 -100 -13 -100 -4
0 -8 -7 -8 -15 0 -8 -4 -15 -10 -15 -6 0 -9 -4 -8 -9 2 -5 -10 -21 -27 -36
-70 -63 -180 -76 -280 -35 -11 5 -35 14 -52 22 -18 7 -33 16 -33 20 0 5 -7 8
-15 8 -20 0 -98 78 -120 119 -49 96 -12 216 82 265 76 39 145 39 261 1z"/>
<path d="M4776 2248 c4 -29 8 -62 9 -72 2 -28 -13 -124 -30 -182 l-15 -51 -72
-12 c-40 -7 -113 -15 -163 -18 -49 -3 -94 -9 -99 -13 -12 -12 69 -62 101 -63
26 0 77 7 127 18 73 16 78 15 72 -11 -10 -40 -83 -196 -128 -277 -59 -104
-138 -206 -231 -297 -45 -44 -76 -80 -70 -80 7 0 45 20 85 45 152 93 248 213
368 464 39 80 76 157 83 170 10 20 27 28 92 43 44 9 105 20 136 24 54 6 57 5
65 -17 15 -48 -2 -207 -40 -384 -10 -44 -47 -146 -72 -195 -35 -69 -57 -77
-136 -45 -34 14 -65 25 -70 25 -5 0 11 -26 36 -57 24 -32 54 -79 65 -105 27
-63 48 -62 112 2 95 95 159 290 193 586 9 80 19 120 39 156 24 44 19 60 -31
93 -56 37 -102 42 -155 17 -44 -21 -196 -57 -204 -48 -7 7 37 156 58 198 11
21 19 43 19 51 0 29 -90 87 -136 87 -14 0 -15 -8 -8 -52z"/>
<path d="M3490 2268 c0 -5 5 -18 10 -29 28 -51 -2 -191 -80 -371 -21 -49 -34
-88 -29 -88 4 0 29 28 55 63 26 34 49 64 50 66 2 2 20 6 41 8 21 2 49 6 63 8
118 22 117 23 65 -72 -41 -75 -43 -83 -12 -57 41 37 105 75 163 99 32 13 60
29 62 35 6 18 -35 51 -89 71 -49 19 -50 19 -87 0 -39 -20 -95 -36 -148 -44
l-31 -5 18 57 c30 95 49 144 69 177 21 37 13 57 -30 68 -73 21 -90 23 -90 14z"/>
<path d="M3140 2164 c-151 -43 -229 -55 -282 -41 -21 5 -42 7 -45 3 -3 -3 -1
-30 5 -58 20 -91 24 -149 24 -303 0 -177 -8 -331 -23 -435 -16 -113 14 -169
65 -121 24 23 112 48 201 58 28 3 53 7 56 9 4 2 49 6 100 10 l94 6 -35 -31
c-32 -29 -33 -31 -10 -25 113 30 189 115 224 249 l12 50 61 -90 c83 -122 151
-205 193 -233 31 -21 45 -23 129 -21 159 3 166 12 49 57 -146 55 -231 116
-353 253 -79 87 -79 89 -65 178 12 80 12 82 -11 102 -23 20 -66 35 -75 27 -2
-3 2 -21 10 -40 14 -32 16 -161 4 -208 -3 -8 -8 -31 -12 -50 -11 -47 -51 -135
-74 -164 -18 -24 -19 -24 -43 -5 -29 22 -59 24 -125 5 -40 -12 -161 -36 -306
-61 l-28 -4 6 222 c3 122 7 299 9 392 2 94 4 172 4 175 1 3 20 5 44 5 37 -1
136 15 280 45 62 12 119 40 114 54 -7 21 -109 16 -197 -10z"/>
<path d="M3175 1990 c-47 -22 -107 -29 -153 -19 -38 8 -50 -7 -33 -39 5 -10
12 -31 15 -46 13 -70 46 -157 57 -151 4 3 6 12 3 19 -6 17 10 23 81 31 95 11
110 18 107 46 -2 16 9 38 33 66 19 23 35 46 35 51 0 15 -51 50 -81 56 -13 2
-42 -4 -64 -14z m27 -100 c-4 -53 -2 -50 -38 -56 -16 -3 -44 -9 -62 -14 -35
-9 -38 -5 -46 67 -3 31 -1 33 38 42 22 5 57 9 76 8 l35 -2 -3 -45z"/>
<path d="M3285 1700 c-22 -11 -61 -19 -86 -20 -25 0 -48 -3 -52 -6 -3 -4 0
-21 7 -38 7 -18 16 -61 20 -96 4 -35 9 -67 12 -72 10 -15 24 -8 29 15 5 17 14
22 43 24 82 5 102 12 100 37 -2 20 33 82 55 97 19 13 -5 48 -44 63 -47 19 -35
19 -84 -4z m31 -55 c3 -8 2 -32 -3 -52 -8 -33 -14 -39 -51 -50 l-43 -12 3 57
c3 50 6 57 28 63 41 12 60 10 66 -6z"/>
<path d="M3026 1648 c-26 -13 -51 -18 -77 -15 -44 5 -45 3 -25 -65 8 -25 17
-63 20 -83 4 -21 10 -45 15 -54 9 -15 10 -15 16 1 4 10 23 19 48 23 63 11 78
22 74 53 -2 15 4 44 15 65 23 46 19 61 -19 80 -25 14 -32 13 -67 -5z m25 -48
c1 -5 2 -21 2 -35 0 -50 -3 -68 -9 -62 -4 3 -19 0 -34 -8 -33 -17 -36 -12 -35
54 0 39 3 46 25 52 37 10 50 10 51 -1z"/>
</g>
</svg>
