<?xml version="1.0" standalone="no"?>
<!DOCTYPE svg PUBLIC "-//W3C//DTD SVG 20010904//EN"
 "http://www.w3.org/TR/2001/REC-SVG-20010904/DTD/svg10.dtd">
<svg version="1.0" xmlns="http://www.w3.org/2000/svg"
 width="1000.000000pt" height="1000.000000pt" viewBox="0 0 1000.000000 1000.000000"
 preserveAspectRatio="xMidYMid meet">
<metadata>
Created by potrace 1.11, written by Peter Selinger 2001-2013
</metadata>
<g transform="translate(0.000000,1000.000000) scale(0.100000,-0.100000)"
fill="#000000" stroke="none">
<path d="M4959 9694 c-89 -90 -148 -129 -216 -145 -64 -15 -124 2 -220 63 -63
40 -64 40 -48 65 13 19 14 27 4 39 -21 25 -36 15 -89 -55 -28 -39 -77 -94
-109 -124 -98 -90 -175 -98 -318 -32 l-75 35 16 25 c15 23 15 25 -3 35 -11 5
-24 10 -29 10 -5 0 -31 -39 -58 -87 -124 -221 -221 -263 -431 -187 -39 14 -41
17 -31 40 13 28 12 30 -22 39 -23 5 -27 1 -49 -57 -58 -153 -118 -240 -188
-273 -43 -21 -134 -23 -214 -6 -55 12 -57 13 -55 44 1 28 -2 32 -24 32 -22 0
-27 -8 -52 -99 -50 -181 -99 -251 -200 -281 -56 -16 -99 -19 -173 -9 -45 7
-47 8 -41 35 4 23 1 28 -21 34 -14 3 -27 4 -30 2 -2 -3 -10 -45 -17 -93 -8
-49 -19 -109 -26 -134 -39 -145 -129 -210 -292 -210 -66 0 -68 1 -68 25 0 21
-5 25 -28 25 l-29 0 -6 -117 c-8 -139 -25 -204 -68 -256 -46 -56 -101 -79
-241 -102 -37 -6 -38 -5 -38 25 0 28 -3 31 -27 28 l-28 -3 4 -132 c5 -173 -7
-221 -68 -283 -47 -49 -119 -83 -201 -96 -38 -6 -40 -5 -40 20 0 18 -5 26 -17
26 -44 -1 -45 -11 -22 -131 45 -240 2 -329 -201 -409 l-51 -20 -10 29 c-10 27
-13 29 -35 19 -13 -6 -24 -14 -24 -17 0 -3 14 -49 31 -101 56 -176 50 -267
-23 -346 -47 -51 -169 -125 -176 -106 -2 7 -19 12 -38 12 l-33 0 35 -77 c114
-246 96 -350 -83 -474 l-42 -29 -17 25 c-16 24 -18 25 -35 9 -11 -10 -19 -21
-19 -26 0 -5 18 -36 41 -69 73 -107 104 -185 104 -259 0 -75 -19 -112 -99
-197 -52 -56 -69 -63 -85 -35 -8 13 -14 15 -27 6 -10 -6 -19 -15 -21 -21 -2
-5 28 -48 67 -94 87 -103 130 -185 130 -248 0 -56 -42 -148 -94 -208 -36 -42
-38 -42 -62 -26 -23 15 -26 15 -39 -3 -13 -18 -6 -26 85 -112 122 -115 155
-171 148 -261 -4 -55 -42 -152 -81 -205 -13 -17 -15 -18 -39 -2 -24 16 -25 15
-36 -8 -10 -23 -7 -27 67 -75 215 -141 254 -244 169 -443 -19 -44 -21 -46 -46
-37 -26 10 -41 0 -42 -28 0 -7 46 -36 103 -65 167 -86 227 -157 226 -268 0
-62 -31 -186 -45 -184 -5 1 -19 5 -31 9 -20 6 -23 3 -23 -24 0 -28 4 -31 67
-51 241 -78 316 -163 299 -339 -10 -102 -12 -108 -47 -103 -28 4 -30 2 -27
-23 3 -27 7 -29 104 -51 136 -30 197 -58 243 -110 46 -53 61 -104 61 -213 l0
-81 -30 0 c-25 0 -30 -4 -30 -25 0 -27 -6 -25 159 -45 204 -24 275 -96 296
-297 6 -62 6 -63 -20 -63 -21 0 -25 -5 -25 -29 l0 -29 147 -4 c128 -3 153 -6
189 -25 81 -43 141 -147 147 -251 2 -42 0 -47 -20 -50 -14 -2 -23 -10 -23 -20
0 -37 12 -40 105 -25 228 36 342 -15 403 -179 30 -81 31 -102 5 -106 -25 -4
-28 -14 -13 -42 10 -18 12 -18 78 0 197 55 283 48 362 -26 30 -28 61 -72 83
-117 l35 -72 -28 -15 c-27 -14 -28 -26 -5 -57 1 -2 51 16 111 38 131 50 213
60 278 35 52 -20 117 -83 158 -154 29 -50 29 -51 8 -62 -23 -12 -26 -33 -7
-49 11 -8 40 3 128 48 122 62 175 77 244 66 52 -7 122 -57 182 -128 l42 -50
-22 -18 c-22 -18 -22 -18 -2 -38 20 -20 20 -19 100 40 199 148 303 152 451 17
52 -48 54 -52 38 -69 -16 -18 -16 -20 1 -39 18 -20 19 -19 104 63 99 96 138
122 208 138 64 15 124 -3 220 -63 64 -40 64 -40 48 -65 -15 -23 -15 -26 2 -39
10 -7 21 -14 25 -14 3 0 29 31 58 69 150 203 252 240 429 156 l73 -35 -16 -25
c-15 -23 -15 -25 3 -35 11 -5 24 -10 29 -10 5 0 32 39 58 87 62 111 131 186
189 209 56 21 147 15 227 -15 55 -21 57 -23 46 -47 -13 -27 -12 -29 20 -38 19
-6 25 -2 38 31 86 214 148 292 247 313 55 11 85 9 180 -12 46 -10 48 -11 42
-39 -6 -27 -4 -29 22 -29 28 0 30 3 52 90 63 244 159 321 366 295 56 -7 57 -7
53 -36 -4 -26 -2 -29 23 -29 30 0 29 -4 50 130 33 212 108 290 287 298 l92 4
0 -31 c0 -27 3 -31 28 -31 l29 0 6 123 c13 258 74 329 310 361 35 5 37 4 37
-25 0 -25 4 -29 28 -29 l29 0 -1 163 c-1 149 1 165 21 203 41 76 131 132 242
150 36 6 40 4 43 -17 2 -18 8 -23 23 -21 34 6 36 16 20 91 -54 259 -12 359
183 435 l63 25 9 -25 c11 -27 19 -29 43 -11 15 11 13 22 -18 130 -54 183 -46
250 39 332 28 28 75 63 105 79 53 29 61 28 74 -8 2 -5 15 -3 29 5 l27 14 -40
84 c-90 191 -92 277 -8 381 18 22 56 56 85 76 l53 37 18 -21 c16 -19 20 -20
37 -7 18 13 16 18 -35 97 -133 207 -132 304 3 444 61 64 61 64 82 45 16 -15
25 -17 39 -10 9 6 17 13 17 17 0 4 -32 45 -71 92 -86 102 -129 186 -129 251 0
54 41 143 95 207 36 41 37 41 62 25 24 -16 26 -16 39 2 12 16 3 28 -95 124
-82 81 -112 117 -126 154 -25 66 -16 136 29 223 52 102 49 99 79 79 24 -16 26
-15 36 4 6 11 11 22 11 25 0 3 -38 30 -85 61 -160 106 -212 180 -203 292 5 52
34 146 57 182 7 10 13 11 31 1 20 -11 25 -10 37 6 7 10 13 20 13 23 0 3 -48
31 -108 60 -184 94 -240 167 -229 299 3 37 13 88 22 114 16 44 18 46 42 37 30
-11 29 -12 38 21 6 24 2 27 -67 49 -235 75 -303 142 -303 296 0 44 4 96 8 116
7 32 10 35 36 31 23 -3 30 1 36 18 4 12 5 24 2 26 -3 3 -52 16 -111 29 -238
54 -296 112 -304 304 l-4 104 31 -5 c28 -4 31 -2 31 24 0 32 -5 34 -120 43
-175 13 -263 60 -305 162 -11 25 -35 165 -35 200 0 2 14 3 30 3 27 0 30 3 30
30 l0 30 -128 0 c-238 0 -315 51 -358 236 -17 77 -14 94 20 94 22 0 23 3 17
28 -4 15 -12 27 -17 27 -5 0 -59 -6 -121 -14 -64 -8 -132 -10 -160 -6 -116 17
-181 86 -228 240 l-13 46 29 6 c31 6 36 20 17 46 -12 15 -18 15 -88 -3 -200
-53 -281 -47 -357 23 -40 37 -113 158 -113 187 0 6 11 15 25 20 23 9 24 12 13
35 -8 17 -17 25 -27 21 -9 -3 -59 -21 -111 -42 -116 -45 -200 -54 -265 -30
-49 19 -125 95 -163 164 l-23 42 25 12 c30 13 31 16 11 42 -14 18 -19 17 -137
-43 -201 -102 -264 -97 -391 30 l-79 78 27 23 c27 23 27 23 7 42 -20 17 -23
16 -114 -50 -118 -85 -168 -108 -238 -108 -69 -1 -131 28 -206 96 l-55 51 21
22 c21 22 19 28 -16 48 -6 3 -44 -28 -85 -69z m54 -128 c7 -18 -14 -38 -29
-28 -6 4 -11 15 -11 25 0 21 33 23 40 3z m-741 -231 c11 -15 10 -22 -5 -28
-21 -8 -39 7 -31 26 6 17 24 18 36 2z m1440 0 c11 -15 10 -22 -5 -28 -21 -8
-39 7 -31 26 6 17 24 18 36 2z m-1175 -91 c-9 -86 -90 -217 -147 -236 -8 -2 0
-23 24 -60 72 -113 104 -265 72 -341 -23 -55 -50 -71 -125 -75 -67 -4 -69 -3
-104 32 -23 22 -42 55 -52 88 -25 87 -17 99 20 27 65 -127 141 -156 184 -70
60 118 17 277 -91 332 -23 12 -68 24 -100 27 -52 4 -62 2 -84 -19 -65 -61
-101 -176 -90 -283 10 -84 29 -155 92 -341 30 -88 64 -197 75 -243 22 -97 41
-137 70 -153 18 -9 26 -6 56 23 19 18 49 62 66 98 29 58 32 74 32 155 0 94
-13 133 -58 183 -11 12 -17 22 -13 22 20 0 60 -39 106 -106 67 -96 82 -105
102 -56 23 58 105 159 177 219 141 116 263 146 336 82 44 -39 66 -110 67 -213
2 -167 -88 -227 -257 -171 l-60 20 72 7 c106 11 168 47 193 112 22 60 -22 140
-85 152 -58 11 -99 -11 -179 -97 -222 -236 -357 -479 -358 -649 -1 -66 3 -85
36 -160 41 -93 72 -217 82 -331 4 -41 10 -80 13 -87 7 -13 135 355 176 508 25
97 32 191 16 245 -9 34 -3 95 10 95 5 0 9 -13 9 -28 0 -45 28 -127 49 -147 47
-42 124 23 208 177 308 565 346 665 347 918 1 121 -1 139 -21 177 -43 80 -116
113 -206 93 -99 -21 -172 -82 -184 -153 -11 -68 45 -127 157 -166 l53 -19 -40
-7 c-52 -8 -151 10 -183 34 -45 33 -64 78 -64 156 -1 61 3 77 26 112 82 125
364 140 496 27 63 -53 82 -98 82 -189 0 -68 3 -79 26 -102 21 -21 32 -24 62
-19 80 12 189 79 411 251 l26 20 -20 -25 c-70 -90 -124 -143 -239 -239 -169
-140 -234 -217 -308 -366 -48 -95 -83 -195 -117 -335 -45 -181 -75 -243 -385
-792 -86 -153 -86 -147 -34 -253 32 -64 99 -125 138 -125 6 0 39 26 73 58 l61
57 -28 -50 c-41 -73 -88 -115 -130 -115 -18 0 -45 -9 -59 -20 l-25 -20 5 39
c5 34 0 46 -37 95 -72 96 -87 94 -114 -11 -41 -157 -39 -208 7 -251 13 -12 86
-53 163 -91 400 -198 646 -442 702 -696 8 -34 13 -343 15 -960 3 -838 5 -913
21 -950 48 -112 89 -127 671 -240 187 -36 408 -82 490 -100 236 -54 395 -76
585 -83 l175 -7 -126 -22 c-146 -27 -218 -28 -504 -8 -115 8 -211 12 -214 9
-12 -12 51 -45 241 -129 109 -48 208 -96 221 -107 l22 -19 -71 5 c-140 11
-324 56 -699 171 -179 55 -313 87 -497 119 -21 4 -38 3 -38 -2 0 -21 58 -58
240 -153 228 -119 284 -144 563 -250 191 -72 382 -157 374 -166 -2 -2 -139 35
-303 83 -274 78 -443 122 -534 138 -33 6 -30 2 70 -101 123 -127 158 -148 335
-198 71 -20 136 -41 145 -45 21 -13 -91 -12 -185 1 -42 6 -80 8 -83 5 -10 -10
31 -47 128 -116 124 -88 203 -151 197 -156 -8 -8 -126 36 -210 78 -169 84
-307 180 -437 303 -41 39 -106 96 -145 127 -129 103 -420 287 -433 273 -3 -3
0 -22 6 -43 9 -28 34 -59 97 -116 47 -43 84 -80 82 -83 -6 -5 -264 91 -356
133 l-74 34 -177 0 -177 0 -7 46 c-3 26 -6 109 -6 185 0 136 0 138 -26 158
-51 40 -142 39 -189 -2 -24 -21 -25 -27 -31 -204 l-7 -183 -115 0 c-105 0
-114 -1 -107 -17 62 -150 38 -361 -62 -543 -47 -87 -125 -183 -135 -167 -14
22 -8 102 12 146 11 24 20 45 20 48 0 7 -48 -4 -290 -67 -297 -78 -317 -82
-299 -65 16 16 207 111 442 220 156 72 169 81 183 114 26 63 28 113 6 162 -39
85 -37 85 -128 54 -43 -14 -194 -75 -334 -134 -255 -109 -300 -126 -300 -118
0 8 144 103 283 186 142 85 248 163 280 206 10 14 17 25 14 25 -20 0 -207 -40
-382 -81 -224 -53 -246 -63 -420 -179 -73 -49 -153 -92 -195 -105 -17 -6 -2
14 53 66 42 41 77 79 77 84 0 6 -88 -4 -220 -26 -121 -20 -252 -40 -292 -43
-68 -6 -71 -6 -48 8 47 29 178 76 352 126 95 27 218 67 273 89 530 205 585
229 585 250 0 5 -24 2 -52 -6 -29 -7 -123 -22 -208 -33 -395 -50 -848 -53
-1086 -8 l-69 13 60 2 c234 10 565 44 795 84 63 11 164 27 224 35 60 8 115 18
123 23 18 9 -98 21 -231 22 -133 1 -161 14 -50 22 50 4 102 11 115 16 l24 9
-25 6 c-14 3 -101 15 -195 27 -93 11 -183 24 -200 29 -28 8 -28 8 15 10 25 1
198 5 385 9 313 6 344 8 385 27 49 22 88 70 117 144 17 42 18 112 23 975 l5
930 26 66 c34 87 67 143 138 231 95 118 86 113 178 93 77 -17 269 -73 328 -95
l29 -11 -52 -29 c-116 -63 -243 -180 -318 -294 l-39 -59 -3 -201 c-3 -174 -1
-199 11 -186 15 16 342 401 390 458 18 22 27 45 27 68 0 30 -3 34 -25 34 -16
0 -25 6 -25 15 0 9 9 15 25 15 21 0 25 5 25 30 0 17 5 30 10 30 6 0 10 -13 10
-30 0 -25 4 -30 25 -30 16 0 25 -6 25 -15 0 -9 -9 -15 -25 -15 -22 0 -25 -4
-25 -34 0 -23 9 -46 28 -68 59 -72 375 -444 389 -458 12 -13 14 11 11 186 l-3
201 -39 59 c-54 81 -157 187 -239 245 -193 136 -686 259 -1037 259 l-129 0
-49 -74 c-53 -78 -87 -159 -98 -226 -7 -44 -24 -45 -24 0 0 38 36 151 71 224
16 33 29 61 29 63 0 8 -75 2 -144 -11 -152 -29 -271 -93 -386 -206 -107 -106
-140 -184 -120 -291 15 -82 195 -437 263 -520 56 -67 120 -109 166 -109 65 0
143 71 194 178 26 57 29 71 25 135 -10 154 -134 301 -236 282 -122 -23 -154
-116 -86 -252 43 -86 99 -97 163 -32 33 32 41 81 21 120 -7 13 -7 19 -1 19 16
0 41 -55 41 -90 0 -87 -101 -167 -184 -146 -61 15 -128 110 -146 205 -27 142
68 261 209 261 29 0 61 -4 71 -10 14 -8 21 -5 34 14 8 13 41 37 73 52 78 37
191 41 224 7 l22 -22 -42 15 c-82 28 -242 -28 -241 -85 0 -9 19 -29 41 -45 49
-34 111 -112 146 -180 72 -142 16 -419 -113 -551 l-46 -48 28 -60 c16 -33 39
-74 52 -90 35 -49 24 -148 -21 -186 -21 -17 -21 -13 -2 32 8 20 15 53 15 74 0
33 -8 45 -64 99 -68 67 -106 84 -191 84 -105 1 -196 37 -319 125 l-75 53 -25
-42 c-43 -73 -167 -123 -279 -113 l-63 6 -69 -121 c-38 -66 -71 -116 -72 -111
-2 6 19 57 47 113 27 57 50 111 50 121 0 13 -11 19 -42 24 -24 4 -95 24 -158
45 -115 39 -231 59 -345 61 -33 1 -71 4 -85 9 -47 14 45 24 220 23 138 0 177
-4 240 -22 41 -12 112 -30 158 -42 79 -19 86 -19 140 -4 125 36 182 91 182
177 0 41 -10 64 -70 165 -39 65 -74 118 -78 117 -4 0 -34 -13 -66 -28 -80 -37
-159 -56 -226 -55 l-55 1 55 9 c78 13 147 50 208 112 l53 53 -56 120 c-31 65
-58 121 -60 123 -10 9 -122 -101 -260 -254 -170 -191 -239 -251 -405 -355 -63
-40 -128 -84 -143 -99 -83 -76 -175 -387 -122 -407 25 -10 59 4 105 43 28 24
42 31 37 20 -4 -10 -7 -23 -7 -27 0 -5 -14 -25 -31 -44 -51 -59 -120 -61 -182
-6 -40 35 -63 102 -53 159 6 37 5 39 -25 45 -47 9 -119 7 -161 -4 -55 -16 -94
-54 -128 -125 -26 -55 -76 -113 -87 -102 -2 2 8 25 23 51 26 47 27 83 2 113
-17 21 -79 15 -137 -12 -110 -52 -189 -128 -211 -205 -20 -68 40 -135 143
-161 26 -6 47 -15 47 -18 0 -16 -74 -41 -119 -41 -162 0 -285 267 -194 421 24
43 75 78 125 85 51 9 41 19 -79 86 -208 115 -261 208 -188 334 31 53 96 111
153 136 107 48 183 -17 241 -206 30 -98 26 -101 -20 -16 -52 97 -83 136 -119
155 -38 20 -40 20 -88 -13 -95 -63 -120 -150 -63 -215 57 -65 192 -117 304
-117 50 0 162 25 277 62 85 27 200 87 275 143 85 64 365 317 360 325 -2 4 -36
17 -75 29 -45 15 -88 37 -121 64 -123 100 -182 123 -304 115 -211 -14 -373
-202 -263 -305 41 -38 127 -75 189 -80 94 -9 139 20 154 100 11 59 -1 76 -79
113 -64 31 -67 34 -31 28 58 -8 133 -43 155 -72 44 -55 14 -137 -72 -194 -127
-86 -284 -73 -381 31 -116 124 -119 241 -7 315 42 28 139 68 255 106 82 27 76
33 -63 48 -101 12 -188 45 -234 89 -26 25 -28 25 -52 10 -14 -9 -46 -47 -72
-84 -95 -136 -147 -204 -151 -199 -6 6 80 204 119 276 17 30 43 69 59 85 27
29 28 33 18 70 -19 67 22 271 68 337 30 45 95 78 149 78 116 -1 234 -126 249
-266 6 -49 6 -49 -11 -24 -10 14 -45 53 -79 86 -63 63 -104 82 -146 69 -32
-11 -59 -80 -59 -155 0 -130 47 -165 350 -255 154 -46 297 -104 466 -188 l130
-65 94 92 c85 82 199 178 542 455 59 47 107 92 108 99 0 21 -75 14 -163 -15
-95 -32 -363 -162 -457 -223 -36 -24 -86 -60 -112 -82 -27 -22 -48 -35 -48
-28 0 24 119 128 210 184 102 62 150 102 150 123 0 24 -101 73 -150 73 -60 0
-105 -23 -228 -113 -123 -90 -189 -118 -292 -123 l-75 -3 50 15 c150 46 215
88 299 193 31 38 61 73 66 76 6 4 -9 20 -35 36 -56 36 -90 101 -80 152 20 95
74 143 153 135 42 -4 109 -34 99 -45 -3 -2 -26 1 -53 7 -27 6 -58 9 -70 6 -25
-7 -64 -63 -64 -93 0 -30 43 -64 102 -80 65 -18 326 -28 472 -18 l107 7 -45
28 c-24 16 -54 42 -67 59 -26 35 -36 42 -244 174 -299 189 -421 226 -552 172
-46 -20 -131 -102 -164 -160 -38 -66 -37 -109 6 -269 19 -72 33 -132 31 -134
-6 -5 -50 72 -90 159 -42 90 -62 187 -52 253 4 26 25 82 47 124 21 41 39 76
39 77 0 3 -61 18 -133 35 -45 10 -191 70 -185 75 2 2 35 -3 73 -11 52 -10 119
-12 265 -8 170 5 210 3 314 -15 284 -50 476 -141 816 -386 87 -63 163 -95 225
-95 30 0 97 20 207 61 89 33 191 67 227 75 79 16 254 18 410 3 62 -6 115 -8
117 -6 6 6 -64 129 -105 184 -86 114 -300 249 -465 294 -63 17 -99 20 -175 17
-113 -5 -159 -24 -234 -97 -62 -59 -87 -107 -87 -167 0 -44 4 -52 48 -94 75
-73 185 -92 272 -47 77 38 111 119 96 222 -9 55 -30 69 -89 60 -34 -6 -53 -18
-95 -64 -42 -43 -52 -50 -47 -31 28 96 74 130 175 130 54 0 65 -3 89 -28 44
-43 49 -152 10 -224 -48 -90 -164 -158 -269 -158 -170 0 -280 133 -280 341 0
82 15 103 99 144 34 16 58 32 53 37 -4 4 -43 13 -87 19 -179 25 -391 -25 -430
-101 -20 -39 -19 -58 6 -99 30 -50 17 -47 -34 8 -79 85 -68 110 98 216 l90 58
-60 19 c-33 10 -83 21 -112 24 -69 9 -111 -13 -238 -122 -106 -91 -159 -128
-119 -83 12 13 51 68 88 123 l66 99 -21 33 c-32 52 -106 111 -162 130 -78 27
-200 25 -253 -3 -57 -30 -94 -77 -94 -117 0 -40 49 -118 84 -134 30 -13 93 2
152 37 20 12 38 20 40 19 1 -2 -8 -18 -22 -36 -48 -61 -133 -87 -201 -61 -94
35 -149 167 -110 262 31 72 139 137 263 157 78 13 133 -4 233 -73 40 -27 129
-67 150 -67 4 0 2 33 -6 73 -13 69 -10 141 7 152 4 2 7 -12 7 -33 0 -50 24
-93 70 -130 109 -85 287 -131 432 -111 91 13 181 2 381 -46 129 -31 257 -45
272 -30 2 3 -13 58 -35 123 -22 67 -41 145 -44 182 l-5 65 50 -82 c27 -44 62
-108 77 -142 31 -69 93 -132 146 -149 40 -13 209 -35 216 -28 3 3 -7 57 -22
120 -29 128 -68 199 -155 286 -190 192 -605 331 -733 247 -37 -24 -52 -80 -37
-136 15 -55 46 -87 101 -101 24 -6 76 -20 114 -32 68 -20 69 -21 40 -30 -91
-28 -211 -4 -284 58 -95 80 -117 165 -62 241 46 64 151 122 256 142 l40 8 -55
17 c-84 27 -214 32 -284 12 -79 -23 -147 -92 -205 -206 -24 -47 -41 -74 -37
-60 18 71 37 206 32 226 -9 35 -52 31 -148 -12 -81 -36 -181 -58 -240 -52
l-33 4 27 12 c15 6 63 36 107 66 43 29 103 63 133 74 61 23 181 42 266 42 70
0 109 18 232 103 107 74 176 140 166 156 -9 15 -59 14 -129 -3 -51 -12 -56
-12 -45 2 22 26 111 62 154 62 54 0 87 -26 86 -68 -1 -43 -26 -87 -84 -148
l-50 -53 53 -15 c29 -9 76 -16 104 -16 88 0 163 -19 289 -75 66 -29 136 -56
154 -60 l32 -7 0 79 c0 44 -5 106 -11 139 -7 32 -12 97 -12 144 -1 73 3 94 28
148 50 112 122 154 331 197 167 33 245 70 285 133 16 25 29 53 29 61 1 13 3
12 12 -3 6 -11 8 -41 5 -72z m2108 -91 c11 -14 10 -19 -3 -29 -22 -16 -52 -6
-45 14 6 15 22 31 32 32 2 0 9 -8 16 -17z m-2902 -297 c5 -13 2 -23 -10 -32
-10 -7 -19 -8 -21 -3 -2 5 -11 9 -19 9 -12 0 -13 3 -3 15 6 8 9 19 5 25 -4 6
3 9 17 7 13 -1 26 -10 31 -21z m3017 -5 c75 -29 124 -65 165 -125 60 -88 77
-157 83 -348 2 -93 6 -168 8 -168 2 0 26 16 54 36 102 73 174 85 379 64 208
-22 282 -104 267 -292 -6 -77 -24 -148 -25 -102 -2 40 -31 120 -61 165 -56 85
-173 124 -295 99 -67 -14 -167 -57 -204 -86 l-23 -20 80 -164 c93 -192 131
-240 191 -240 71 0 161 92 161 165 0 37 -42 75 -82 76 -28 0 -30 2 -13 9 28
12 83 12 105 0 43 -23 46 -122 5 -200 -38 -73 -124 -112 -212 -95 -68 12 -169
74 -269 166 -136 123 -144 122 -224 -23 -66 -118 -132 -199 -257 -316 -64 -59
-201 -188 -305 -287 l-189 -180 38 -7 c358 -66 489 -53 687 64 124 74 199 149
220 218 30 99 15 183 -40 238 -30 30 -39 34 -73 29 -84 -11 -161 -96 -161
-177 0 -55 22 -70 104 -70 92 0 111 -12 57 -34 -59 -23 -142 -21 -174 5 -68
52 -53 191 30 289 32 39 115 80 160 80 46 0 132 -34 177 -72 47 -39 66 -81 66
-149 l0 -51 48 39 c176 146 297 182 378 111 41 -37 73 -98 74 -142 0 -45 -36
-92 -108 -139 -114 -75 -120 -73 -36 15 44 46 84 97 88 112 20 81 -104 123
-207 69 -46 -23 -127 -103 -243 -239 -56 -67 -117 -133 -134 -148 l-32 -26 25
0 c76 0 332 55 507 109 107 33 282 82 387 110 214 56 238 66 278 113 54 65 16
169 -92 250 -58 44 -138 78 -183 78 -37 0 -95 -50 -157 -137 -25 -35 -46 -63
-48 -63 -8 0 39 149 58 184 39 70 64 81 186 81 104 0 109 -1 185 -39 54 -26
99 -59 145 -105 78 -77 111 -139 111 -211 0 -65 -30 -99 -150 -170 l-93 -54
77 -74 c112 -107 167 -127 285 -101 28 6 59 9 68 7 26 -6 -50 -27 -123 -35
-54 -5 -71 -2 -145 28 -78 30 -93 33 -199 34 -98 0 -124 -3 -172 -23 -32 -13
-58 -27 -58 -32 0 -5 28 -25 63 -46 111 -66 167 -137 166 -209 0 -26 -4 -22
-31 34 -37 74 -62 92 -162 117 -111 28 -214 23 -313 -14 -258 -98 -502 -132
-1113 -152 -162 -5 -308 -14 -325 -19 l-30 -9 28 -1 c65 -2 257 -35 327 -56
41 -13 107 -36 146 -53 177 -75 426 -113 614 -94 249 26 509 131 484 197 -4 9
-27 30 -51 45 -34 22 -39 29 -25 32 33 9 81 -4 108 -29 22 -20 26 -30 21 -63
-2 -21 -16 -54 -30 -75 -46 -68 -118 -102 -337 -161 -221 -58 -240 -64 -240
-73 0 -19 93 -70 174 -96 113 -37 232 -34 317 7 56 28 144 109 200 186 38 52
93 82 152 82 32 0 49 -6 63 -21 19 -22 19 -22 -3 -10 -12 6 -43 11 -69 11 -43
0 -51 -4 -93 -48 -45 -46 -182 -217 -190 -236 -6 -14 213 0 304 19 306 65 545
196 545 300 0 43 -18 81 -55 115 -56 52 -216 21 -269 -53 -14 -19 -22 -50 -26
-105 l-6 -77 -17 37 c-42 92 -26 195 41 265 58 59 104 78 193 78 67 0 81 -4
125 -30 27 -17 67 -54 88 -83 38 -50 40 -52 88 -52 46 0 51 -3 111 -63 69 -69
98 -129 118 -248 20 -122 6 -121 -33 1 -46 143 -80 197 -141 230 -58 31 -79
22 -89 -39 -22 -128 -157 -290 -300 -361 -139 -68 -356 -110 -570 -110 l-79 0
18 -32 c10 -18 65 -80 123 -138 123 -123 236 -197 367 -242 79 -28 96 -30 178
-25 219 13 515 173 515 279 0 19 -7 43 -15 56 -20 28 -91 69 -169 98 l-61 23
57 0 c79 1 162 -32 216 -84 36 -36 42 -48 42 -84 0 -59 -10 -75 -106 -166 -46
-44 -84 -88 -84 -97 0 -10 16 -22 43 -32 23 -9 67 -25 97 -36 113 -41 169 -99
191 -194 37 -166 -146 -366 -334 -366 -101 0 -177 56 -177 130 0 45 12 78 52
136 24 37 94 91 104 81 3 -2 -8 -31 -23 -63 -15 -32 -29 -82 -31 -110 -4 -45
-1 -53 19 -68 50 -35 138 -9 197 59 93 105 102 210 24 275 -71 59 -187 75
-319 44 -86 -20 -318 -15 -408 10 -95 26 -237 101 -345 182 -54 41 -101 74
-105 74 -4 0 -5 -40 -3 -89 4 -111 13 -124 132 -206 48 -33 83 -61 77 -63 -21
-7 -118 19 -177 47 -82 39 -122 89 -169 212 -101 267 -222 368 -595 494 -69
23 -187 70 -263 104 -76 33 -143 61 -149 61 -7 0 -9 -26 -6 -79 7 -114 49
-200 121 -244 56 -35 46 -49 -16 -23 -67 27 -131 153 -157 303 l-12 72 -136
45 c-133 44 -315 96 -338 96 -6 0 24 -35 66 -78 99 -101 166 -197 245 -352 35
-69 80 -144 100 -167 69 -81 196 -123 373 -123 301 0 542 -75 681 -210 83 -82
116 -150 108 -230 -9 -98 -60 -172 -171 -249 -139 -96 -216 -103 -326 -29 -54
36 -78 61 -144 154 -12 17 -59 46 -123 76 -79 37 -109 57 -123 81 -21 34 -26
83 -10 107 7 11 10 4 10 -26 0 -51 15 -65 102 -98 37 -14 88 -37 112 -51 l45
-26 15 34 c20 48 82 115 130 139 53 27 132 28 178 1 45 -26 78 -87 77 -143 0
-40 -1 -42 -10 -20 -30 75 -98 126 -156 117 -74 -12 -163 -99 -163 -159 0 -66
115 -125 225 -116 140 12 237 150 191 272 -29 77 -116 150 -211 178 -18 5
-177 4 -397 -4 -334 -11 -368 -14 -368 -29 0 -28 49 -190 75 -247 18 -38 57
-86 142 -171 267 -266 427 -340 713 -328 167 7 287 41 417 118 81 49 212 176
272 265 76 113 81 154 17 154 -42 0 -165 -62 -232 -116 l-47 -39 16 32 c24 45
117 132 189 176 102 62 178 49 213 -37 20 -48 -10 -188 -69 -328 -8 -18 8 -24
224 -80 69 -18 156 -50 218 -81 100 -49 104 -50 196 -51 63 -1 91 -4 85 -11
-6 -5 -58 -10 -117 -10 -92 0 -122 5 -212 32 -132 40 -197 47 -300 33 -69 -9
-364 -93 -380 -107 -3 -3 23 -31 58 -63 65 -61 84 -97 35 -64 -135 88 -240 91
-510 13 -189 -55 -246 -61 -352 -43 -239 41 -427 118 -568 231 -168 136 -255
218 -298 283 -52 79 -63 103 -121 265 -24 68 -45 113 -48 105 -21 -55 -76
-280 -76 -311 0 -75 63 -237 132 -337 43 -63 36 -86 -42 -147 -93 -72 -136
-118 -145 -156 l-7 -34 -10 31 c-15 46 10 89 87 152 49 40 65 59 65 79 0 14
-28 68 -65 124 -89 136 -97 153 -109 242 l-11 77 -95 -56 c-112 -66 -150 -86
-150 -80 0 3 21 20 48 38 75 51 152 129 177 178 15 31 24 71 28 130 3 48 23
154 46 244 l41 158 -32 96 c-45 135 -85 190 -244 328 -144 125 -190 160 -264
199 -41 21 -51 22 -97 13 l-52 -10 -53 44 c-74 63 -197 143 -303 199 l-89 48
45 19 c25 11 92 36 150 57 228 81 469 216 522 293 47 67 33 138 -38 201 -20
17 -31 31 -26 31 22 0 60 -21 125 -69 38 -28 79 -51 92 -51 55 0 143 137 188
294 68 233 30 419 -98 485 -62 32 -171 36 -227 8 -96 -48 -167 -145 -155 -211
13 -70 127 -165 197 -166 77 0 99 97 54 235 -6 16 -3 16 14 -5 20 -24 33 -56
45 -113 l7 -28 44 26 c43 25 62 22 30 -5 -8 -7 -20 -31 -27 -53 -16 -54 -73
-110 -134 -131 -61 -22 -202 -31 -271 -19 -48 9 -52 9 -62 -13 -12 -27 -27
-116 -36 -209 -6 -70 -20 -163 -32 -220 l-7 -30 -7 40 c-4 22 -8 70 -8 108 -1
37 -2 67 -4 67 -1 0 -34 -9 -72 -20 -97 -28 -123 -24 -45 6 74 28 105 54 120
98 11 34 17 284 10 412 -4 73 -2 86 24 138 32 65 81 107 231 201 170 106 204
156 205 298 0 133 32 182 133 208 90 22 214 -27 243 -96 19 -46 9 -87 -33
-132 -33 -37 -33 -37 -19 -8 8 17 17 47 21 68 21 112 -142 155 -242 64 -30
-27 -29 -60 2 -143 14 -36 25 -76 25 -88 0 -16 10 -25 34 -34 86 -31 217 -135
267 -211 24 -37 59 -21 156 72 63 60 84 75 78 57 -11 -36 -42 -78 -106 -140
-32 -31 -59 -68 -63 -85 -4 -16 -9 -100 -13 -185 l-5 -155 112 140 c240 301
348 501 380 708 19 124 -16 235 -97 306 -55 49 -99 65 -168 59 -68 -6 -111
-37 -141 -102 -77 -171 -11 -286 149 -262 61 9 84 34 98 108 12 59 13 61 21
33 12 -41 0 -113 -24 -153 -30 -49 -71 -67 -153 -66 -112 1 -182 47 -206 138
-23 85 13 213 86 302 89 108 215 138 355 85z m-3913 -33 c-16 -24 -43 -23 -50
2 -7 26 20 42 44 27 14 -8 15 -14 6 -29z m1915 -210 c-5 -21 -34 -20 -43 2 -3
8 -1 19 5 26 16 16 45 -4 38 -28z m1412 9 c7 -30 -22 -49 -44 -29 -24 20 -14
50 15 50 15 0 25 -8 29 -21z m1192 -34 c-2 -25 -23 -36 -39 -21 -10 9 -11 16
-3 25 16 19 44 16 42 -4z m-4380 -365 c-12 -20 -26 -24 -26 -8 0 6 -6 10 -14
10 -20 0 -8 38 13 42 24 5 41 -22 27 -44z m-727 12 c5 0 6 -11 4 -24 -5 -26
-31 -30 -49 -7 -14 18 4 43 24 36 8 -3 17 -5 21 -5z m2085 -93 c-3 -8 -16 -14
-28 -13 -17 1 -23 7 -23 23 -1 25 26 35 44 17 7 -7 10 -19 7 -27z m1182 -106
c0 -11 -7 -18 -18 -17 -10 1 -18 4 -18 9 0 4 0 12 0 17 0 6 8 10 18 10 11 0
18 -7 18 -19z m-3116 -97 c0 -26 -23 -43 -41 -31 -13 8 -14 15 -7 27 13 20 48
24 48 4z m-827 -97 c7 -19 -18 -38 -32 -24 -6 6 -11 17 -11 24 0 17 36 17 43
0z m2310 -24 c-7 -17 -43 -17 -43 0 0 7 5 18 11 24 14 14 39 -5 32 -24z m3248
-133 c5 0 4 -8 -2 -19 -17 -26 -49 -15 -49 16 0 13 4 22 9 18 5 -3 13 0 18 7
5 10 8 8 11 -4 2 -10 8 -18 13 -18z m-2408 -51 c-7 -26 -36 -28 -49 -4 -8 15
-6 23 5 31 20 16 50 -3 44 -27z m3207 -183 c-5 -5 -6 -14 -4 -20 2 -6 -7 -12
-20 -12 -28 -2 -38 21 -23 47 8 13 14 14 33 5 13 -6 19 -15 14 -20z m-5741
-26 c5 0 6 -11 4 -24 -6 -28 -50 -34 -55 -7 -5 21 13 42 30 36 8 -3 17 -5 21
-5z m6475 -75 c3 -9 0 -15 -9 -15 -8 0 -15 7 -15 15 0 8 4 15 9 15 5 0 11 -7
15 -15z m-4965 -115 c5 0 6 -11 3 -25 -5 -28 -32 -34 -52 -10 -14 17 7 47 28
40 8 -3 17 -5 21 -5z m2701 -220 c-15 -15 -19 -16 -24 -4 -3 8 -13 14 -22 14
-13 0 -14 3 -4 15 6 8 9 19 6 24 -4 5 6 11 21 13 37 4 51 -34 23 -62z m-4825
10 c10 0 11 -5 2 -23 -16 -35 -62 -32 -63 4 -1 28 38 56 44 32 2 -7 9 -13 17
-13z m6708 -141 c-6 -21 -43 -33 -43 -13 0 8 -5 14 -12 14 -6 0 -4 8 6 19 14
16 22 18 36 9 10 -6 15 -19 13 -29z m691 28 c17 -17 -2 -47 -24 -38 -20 8 -24
32 -8 42 17 11 17 11 32 -4z m-6271 -120 c7 -20 -5 -35 -23 -28 -22 9 -22 41
0 41 10 0 20 -6 23 -13z m4731 -223 c9 -3 16 -12 16 -19 0 -17 -25 -26 -38
-13 -6 6 -8 17 -5 24 6 16 6 16 27 8z m-3422 -266 c8 -22 -2 -36 -22 -31 -16
4 -18 9 -9 24 11 22 25 25 31 7z m-1942 -179 c0 -26 -47 -31 -54 -6 -7 28 14
47 36 33 10 -6 18 -18 18 -27z m1420 -11 c0 -10 -4 -18 -9 -18 -5 0 -16 -3
-24 -6 -19 -7 -27 24 -13 47 8 14 13 15 28 6 10 -7 18 -20 18 -29z m-2642 -79
c-19 -13 -38 -11 -35 4 3 19 20 27 35 15 11 -9 11 -13 0 -19z m5006 -15 c26
-10 20 -51 -8 -56 -28 -6 -43 25 -23 48 14 16 12 15 31 8z m3465 -140 c-16
-19 -39 -6 -39 23 0 13 4 22 9 18 5 -3 13 0 17 7 5 7 10 4 16 -12 5 -14 4 -28
-3 -36z m-2095 -48 c-5 -12 -10 -14 -19 -6 -6 5 -15 6 -19 2 -5 -4 -6 2 -4 13
1 11 10 23 18 26 18 8 32 -13 24 -35z m-3004 -17 c0 -22 -27 -32 -34 -12 -8
19 -1 30 19 30 8 0 15 -8 15 -18z m4363 -55 c20 -7 9 -45 -12 -42 -20 4 -32
31 -17 40 13 9 11 9 29 2z m-3916 -98 c0 -15 -6 -21 -23 -22 -15 -1 -24 4 -24
12 0 8 -4 14 -10 14 -5 0 -2 8 8 18 21 22 50 9 49 -22z m-2730 0 c-3 -30 -39
-38 -53 -11 -8 15 -7 23 5 31 22 17 51 5 48 -20z m676 -176 c15 0 17 -3 8 -14
-6 -7 -8 -22 -4 -31 5 -15 3 -17 -12 -12 -9 4 -24 2 -31 -4 -11 -9 -14 -7 -14
8 0 10 -5 24 -12 31 -9 9 -8 12 5 12 9 0 17 8 17 17 0 13 3 14 12 5 7 -7 21
-12 31 -12z m-1480 -70 c2 -10 -3 -24 -13 -33 -16 -13 -19 -13 -31 2 -8 9 -13
25 -11 37 2 16 8 20 27 17 13 -3 25 -13 28 -23z m5961 -56 c21 -20 20 -31 -2
-36 -22 -6 -44 16 -36 36 8 20 18 20 38 0z m1364 -250 c0 -17 -6 -22 -22 -21
-32 2 -46 26 -27 47 20 21 49 6 49 -26z m-5171 -94 c10 0 13 -6 9 -16 -3 -9
-6 -19 -6 -24 0 -13 -34 -6 -46 9 -8 11 -7 18 5 30 9 9 18 13 19 9 2 -4 11 -8
19 -8z m5923 -332 c0 -22 -32 -28 -46 -9 -18 23 4 53 28 38 10 -7 18 -19 18
-29z m-8567 -9 c-7 -26 -36 -28 -49 -4 -8 15 -6 23 5 31 20 16 50 -3 44 -27z
m7017 -179 c0 -5 6 -10 14 -10 8 0 12 -8 9 -22 -5 -26 -53 -36 -53 -12 0 8 -5
14 -12 14 -6 0 -3 9 8 19 21 22 34 26 34 11z m-4048 -52 c-5 -21 -34 -20 -43
2 -8 20 21 41 36 26 7 -6 10 -18 7 -28z m3211 -41 c7 -19 -5 -34 -25 -34 -21
0 -25 33 -5 40 20 9 25 8 30 -6z m-4153 -51 c0 -8 10 -18 22 -22 19 -6 19 -7
5 -16 -10 -5 -17 -18 -17 -30 0 -17 -3 -18 -15 -8 -8 6 -22 9 -32 6 -15 -5
-18 0 -19 29 0 27 3 35 18 35 10 0 18 5 18 10 0 6 5 10 10 10 6 0 10 -6 10
-14z m5733 -242 c-21 -14 -56 3 -48 24 3 8 5 17 5 22 0 5 10 10 23 12 29 4 45
-39 20 -58z m-3499 -783 c247 -166 358 -286 387 -419 20 -97 -50 -305 -152
-449 -75 -106 -153 -187 -378 -392 -390 -357 -550 -560 -690 -878 -39 -88
-189 -523 -211 -610 -6 -24 -15 -43 -20 -43 -12 0 -103 112 -126 155 -17 33
-17 34 21 141 157 451 308 732 498 930 50 53 184 172 297 264 220 180 400 356
469 459 136 200 155 375 62 559 -33 64 -66 97 -227 230 -149 123 -149 122 -85
122 47 0 60 -6 155 -69z m550 20 c39 -27 174 -103 300 -170 126 -67 269 -149
318 -183 216 -148 338 -332 338 -510 0 -134 -41 -242 -184 -481 -138 -232
-172 -329 -163 -468 7 -102 35 -165 106 -233 81 -77 155 -122 406 -248 121
-61 225 -115 232 -120 8 -7 -3 -27 -40 -74 -28 -35 -55 -64 -60 -64 -5 0 -35
15 -66 34 -31 19 -132 75 -226 126 -319 173 -448 278 -519 420 -91 187 -70
288 127 601 163 259 212 380 211 524 -1 208 -71 287 -454 510 -280 164 -432
273 -490 355 l-21 30 57 0 c53 0 64 -4 128 -49z"/>
<path d="M4968 5328 c-27 -9 -28 -13 -28 -74 0 -61 1 -64 19 -54 11 5 23 19
26 30 3 11 10 20 15 20 5 0 12 -9 15 -20 3 -11 15 -25 26 -30 18 -10 19 -7 19
54 0 63 -1 64 -31 75 -18 6 -32 11 -33 10 -1 0 -13 -5 -28 -11z"/>
<path d="M4867 5279 c-41 -22 -50 -36 -45 -70 3 -21 3 -21 31 6 20 21 27 24
27 12 0 -9 9 -21 20 -27 19 -10 20 -8 20 45 0 30 -3 55 -7 55 -5 -1 -25 -10
-46 -21z"/>
<path d="M5080 5245 c0 -30 2 -55 5 -55 2 0 13 9 24 21 l19 21 24 -24 23 -23
3 23 c5 36 -4 49 -47 72 -22 11 -43 20 -46 20 -3 0 -5 -25 -5 -55z"/>
<path d="M4782 5221 c-10 -6 -10 -10 3 -21 13 -11 15 -9 15 9 0 24 0 24 -18
12z"/>
<path d="M5200 5208 c0 -17 2 -18 15 -8 8 7 15 14 15 15 0 2 -7 5 -15 9 -10 4
-15 -1 -15 -16z"/>
<path d="M4966 5179 c-26 -20 -26 -22 -26 -155 l0 -134 60 0 60 0 0 134 0 135
-29 20 c-35 26 -33 26 -65 0z"/>
<path d="M4726 5168 c-13 -18 -16 -51 -16 -150 l0 -128 45 0 45 0 0 133 c0
117 -2 136 -18 150 -25 23 -38 21 -56 -5z"/>
<path d="M4842 5174 c-21 -14 -22 -22 -22 -150 l0 -134 50 0 50 0 0 134 c0
128 -1 136 -22 150 -12 9 -25 16 -28 16 -3 0 -16 -7 -28 -16z"/>
<path d="M5102 5174 c-21 -14 -22 -22 -22 -150 l0 -134 50 0 50 0 0 134 c0
128 -1 136 -22 150 -12 9 -25 16 -28 16 -3 0 -16 -7 -28 -16z"/>
<path d="M5217 5172 c-14 -15 -17 -42 -17 -150 l0 -132 45 0 45 0 0 133 c0
117 -2 136 -18 150 -24 22 -35 21 -55 -1z"/>
<path d="M4710 4735 l0 -135 45 0 45 0 0 135 0 135 -45 0 -45 0 0 -135z"/>
<path d="M4820 4735 l0 -135 50 0 50 0 0 135 0 135 -50 0 -50 0 0 -135z"/>
<path d="M4940 4735 l0 -135 60 0 60 0 0 135 0 135 -60 0 -60 0 0 -135z"/>
<path d="M5080 4735 l0 -135 50 0 50 0 0 135 0 135 -50 0 -50 0 0 -135z"/>
<path d="M5200 4735 l0 -135 45 0 45 0 0 135 0 135 -45 0 -45 0 0 -135z"/>
<path d="M4710 4485 l0 -95 45 0 45 0 0 95 0 95 -45 0 -45 0 0 -95z"/>
<path d="M4820 4485 l0 -95 50 0 50 0 0 95 0 95 -50 0 -50 0 0 -95z"/>
<path d="M4940 4485 l0 -95 60 0 60 0 0 95 0 95 -60 0 -60 0 0 -95z"/>
<path d="M5080 4485 l0 -95 50 0 50 0 0 95 0 95 -50 0 -50 0 0 -95z"/>
<path d="M5207 4573 c-4 -3 -7 -46 -7 -95 l0 -88 45 0 45 0 0 95 0 95 -38 0
c-21 0 -42 -3 -45 -7z"/>
</g>
</svg>
